<?xml version="1.0" standalone="no"?>
<!DOCTYPE svg PUBLIC "-//W3C//DTD SVG 20010904//EN"
 "http://www.w3.org/TR/2001/REC-SVG-20010904/DTD/svg10.dtd">
<svg version="1.0" xmlns="http://www.w3.org/2000/svg"
 width="203.000000pt" height="215.000000pt" viewBox="0 0 203.000000 215.000000"
 preserveAspectRatio="xMidYMid meet">

<g transform="translate(0.000000,215.000000) scale(0.100000,-0.100000)"
fill="#000000" stroke="none">
<path d="M840 2044 c-14 -2 -67 -11 -119 -20 -168 -27 -425 -124 -514 -194
l-27 -21 0 -442 c0 -500 1 -512 76 -657 105 -204 350 -419 654 -574 l109 -56
91 40 c189 81 338 179 474 310 140 134 219 260 257 408 17 69 19 113 19 523
l0 448 -27 21 c-85 67 -335 163 -508 195 -86 16 -426 30 -485 19z m407 -145
c156 -21 326 -75 426 -136 l47 -28 0 -410 c0 -323 -3 -421 -15 -464 -54 -204
-245 -403 -537 -561 l-78 -42 0 126 0 126 -70 0 -70 0 0 -121 0 -121 -57 32
c-177 99 -371 263 -459 386 -24 33 -58 92 -76 130 l-33 69 0 429 0 429 85 43
c97 49 227 89 350 109 104 16 381 19 487 4z"/>
<path d="M565 1671 c-58 -27 -129 -92 -155 -141 -14 -27 -15 -27 80 30 65 39
82 45 131 45 71 0 120 -32 178 -115 23 -32 50 -61 60 -65 26 -8 68 10 81 35
18 34 5 64 -58 131 -102 111 -201 136 -317 80z"/>
<path d="M1265 1676 c-55 -25 -161 -131 -171 -171 -12 -46 41 -94 88 -79 10 3
41 36 69 74 60 83 126 130 182 130 52 0 92 -20 160 -81 l55 -49 -16 42 c-23
60 -97 133 -147 147 -69 19 -164 14 -220 -13z"/>
<path d="M548 1405 c-20 -7 -48 -21 -62 -30 -32 -21 -23 -36 38 -67 61 -32
156 -31 221 2 28 14 50 32 50 40 0 8 -24 27 -54 43 -61 30 -131 35 -193 12z"/>
<path d="M1299 1393 c-30 -16 -54 -35 -54 -43 0 -8 23 -26 50 -40 65 -33 160
-34 221 -2 61 31 70 46 38 66 -80 53 -174 60 -255 19z"/>
<path d="M568 818 l98 -163 138 -3 138 -3 40 37 40 36 37 -36 37 -37 139 3
139 3 98 163 c53 89 95 162 92 162 -2 0 -61 -43 -131 -95 -112 -84 -131 -95
-167 -95 -38 0 -47 6 -111 70 l-69 70 -66 0 -66 0 -69 -70 c-64 -64 -73 -70
-111 -70 -36 0 -55 11 -167 95 -70 52 -129 95 -131 95 -3 0 39 -73 92 -162z"/>
</g>
</svg>
